
  <svg width="450" height="272" viewBox="0 0 450 272" xmlns="http://www.w3.org/2000/svg" style="font-family: -apple-system, BlinkMacSystemFont, 'Segoe UI', Roboto, Oxygen, Ubuntu, sans-serif;">
    <style>
      .title { font-size: 18px; font-weight: 600; fill: #ffffff; }
      .bar-label { font-size: 12px; fill: #ffffff; font-weight: 500; }
      .bar-percent { font-size: 12px; fill: #ffffff; opacity: 0.8; }
      .bar-bg { fill: #2d333b; rx: 4; } /* Dark background for bars */
    </style>
    <rect width="100%" height="100%" fill="#0d1117" /> /* GitHub Dark Background */
    <text x="25" y="35" class="title">Top Languages by Bytes</text>
  
      <!-- Language Label -->
      <text x="25" y="76" class="bar-label">TypeScript</text>
      
      <!-- Background Bar Container -->
      <rect x="110" y="60" width="315" height="25" rx="4" class="bar-bg" />
      
      <!-- Foreground Progress Bar -->
      <rect x="110" y="60" width="204.29999999999998" height="25" rx="4" fill="#3178c6" />
      
      <!-- Percentage Text -->
      <text x="425" y="76" class="bar-percent" text-anchor="end">68.1%</text>
    
      <!-- Language Label -->
      <text x="25" y="113" class="bar-label">JavaScript</text>
      
      <!-- Background Bar Container -->
      <rect x="110" y="97" width="315" height="25" rx="4" class="bar-bg" />
      
      <!-- Foreground Progress Bar -->
      <rect x="110" y="97" width="48.9" height="25" rx="4" fill="#f1e05a" />
      
      <!-- Percentage Text -->
      <text x="425" y="113" class="bar-percent" text-anchor="end">16.3%</text>
    
      <!-- Language Label -->
      <text x="25" y="150" class="bar-label">Go(Golang)</text>
      
      <!-- Background Bar Container -->
      <rect x="110" y="134" width="315" height="25" rx="4" class="bar-bg" />
      
      <!-- Foreground Progress Bar -->
      <rect x="110" y="134" width="21.9" height="25" rx="4" fill="#e34c26" />
      
      <!-- Percentage Text -->
      <text x="425" y="150" class="bar-percent" text-anchor="end">7.3%</text>
    
      <!-- Language Label -->
      <text x="25" y="187" class="bar-label">Python</text>
      
      <!-- Background Bar Container -->
      <rect x="110" y="171" width="315" height="25" rx="4" class="bar-bg" />
      
      <!-- Foreground Progress Bar -->
      <rect x="110" y="171" width="10.500000000000002" height="25" rx="4" fill="#663399" />
      
      <!-- Percentage Text -->
      <text x="425" y="187" class="bar-percent" text-anchor="end">3.5%</text>
    
      <!-- Language Label -->
      <text x="25" y="224" class="bar-label">Shell</text>
      
      <!-- Background Bar Container -->
      <rect x="110" y="208" width="315" height="25" rx="4" class="bar-bg" />
      
      <!-- Foreground Progress Bar -->
      <rect x="110" y="208" width="9.6" height="25" rx="4" fill="#41b883" />
      
      <!-- Percentage Text -->
      <text x="425" y="224" class="bar-percent" text-anchor="end">3.2%</text>
    
      <!-- Language Label -->
      <text x="25" y="261" class="bar-label">Jupyter Notebook</text>
      
      <!-- Background Bar Container -->
      <rect x="110" y="245" width="315" height="25" rx="4" class="bar-bg" />
      
      <!-- Foreground Progress Bar -->
      <rect x="110" y="245" width="4.5" height="25" rx="4" fill="#DA5B0B" />
      
      <!-- Percentage Text -->
      <text x="425" y="261" class="bar-percent" text-anchor="end">1.5%</text>
    </svg>